<?xml version="1.0" encoding="UTF-8" standalone="no"?>
<!DOCTYPE svg PUBLIC "-//W3C//DTD SVG 1.1//EN"
 "http://www.w3.org/Graphics/SVG/1.1/DTD/svg11.dtd">
<!-- Generated by graphviz version 2.38.0 (20140413.2041)
 -->
<!-- Title: structs Pages: 1 -->
<svg width="1667pt" height="585pt"
 viewBox="0.00 0.00 1667.00 585.00" xmlns="http://www.w3.org/2000/svg" xmlns:xlink="http://www.w3.org/1999/xlink">
<g id="graph0" class="graph" transform="scale(1 1) rotate(0) translate(4 581)">
<title>structs</title>
<polygon fill="white" stroke="none" points="-4,4 -4,-581 1663,-581 1663,4 -4,4"/>
<text text-anchor="middle" x="829.5" y="-7.8" font-family="Times,serif" font-size="14.00">Card Example</text>
<!-- xMuiThemeProvider -->
<g id="node1" class="node"><title>xMuiThemeProvider</title>
<polygon fill="none" stroke="black" points="847.5,-106.5 847.5,-175.5 972.5,-175.5 972.5,-106.5 847.5,-106.5"/>
<text text-anchor="middle" x="910" y="-160.3" font-family="Times,serif" font-size="14.00">children</text>
<polyline fill="none" stroke="black" points="847.5,-152.5 972.5,-152.5 "/>
<text text-anchor="middle" x="910" y="-137.3" font-family="Times,serif" font-size="14.00">MuiThemeProvider</text>
<polyline fill="none" stroke="black" points="847.5,-129.5 972.5,-129.5 "/>
<text text-anchor="middle" x="910" y="-114.3" font-family="Times,serif" font-size="14.00">component</text>
</g>
<!-- xRender -->
<g id="node2" class="node"><title>xRender</title>
<polygon fill="none" stroke="black" points="880.5,-23.5 880.5,-69.5 1007.5,-69.5 1007.5,-23.5 880.5,-23.5"/>
<text text-anchor="middle" x="910.5" y="-54.3" font-family="Times,serif" font-size="14.00">element</text>
<polyline fill="none" stroke="black" points="940.5,-46.5 940.5,-69.5 "/>
<text text-anchor="middle" x="974" y="-54.3" font-family="Times,serif" font-size="14.00">container</text>
<polyline fill="none" stroke="black" points="880.5,-46.5 1007.5,-46.5 "/>
<text text-anchor="middle" x="944" y="-31.3" font-family="Times,serif" font-size="14.00">Render</text>
</g>
<!-- xMuiThemeProvider&#45;&gt;xRender -->
<g id="edge1" class="edge"><title>xMuiThemeProvider:OUTPUT_component&#45;&gt;xRender:INPUT_element</title>
<path fill="none" stroke="black" d="M910,-106C910,-94 910,-88.75 910,-80.125"/>
<polygon fill="black" stroke="black" points="913.5,-80 910,-70 906.5,-80 913.5,-80"/>
</g>
<!-- xSelector -->
<g id="node3" class="node"><title>xSelector</title>
<polygon fill="none" stroke="black" points="1005.5,-118 1005.5,-164 1070.5,-164 1070.5,-118 1005.5,-118"/>
<text text-anchor="middle" x="1038" y="-148.8" font-family="Times,serif" font-size="14.00">Selector</text>
<polyline fill="none" stroke="black" points="1005.5,-141 1070.5,-141 "/>
<text text-anchor="middle" x="1038" y="-125.8" font-family="Times,serif" font-size="14.00">selection</text>
</g>
<!-- xSelector&#45;&gt;xRender -->
<g id="edge2" class="edge"><title>xSelector:OUTPUT_selection&#45;&gt;xRender:INPUT_container</title>
<path fill="none" stroke="black" d="M1004,-129C991.914,-129 1010.69,-87.2514 1012.83,-68.0079"/>
<polygon fill="black" stroke="black" points="1015.98,-66.4677 1009,-58.5 1009.49,-69.0835 1015.98,-66.4677"/>
</g>
<!-- xLog -->
<g id="node4" class="node"><title>xLog</title>
<polygon fill="none" stroke="black" points="1026,-23.5 1026,-69.5 1080,-69.5 1080,-23.5 1026,-23.5"/>
<text text-anchor="middle" x="1053" y="-54.3" font-family="Times,serif" font-size="14.00">msg</text>
<polyline fill="none" stroke="black" points="1026,-46.5 1080,-46.5 "/>
<text text-anchor="middle" x="1053" y="-31.3" font-family="Times,serif" font-size="14.00">Log</text>
</g>
<!-- xSelector&#45;&gt;xLog -->
<g id="edge3" class="edge"><title>xSelector:OUTPUT_selection&#45;&gt;xLog:INPUT_msg</title>
<path fill="none" stroke="black" d="M1038,-117C1038,-99.0131 1048.09,-93.664 1051.72,-80.2187"/>
<polygon fill="black" stroke="black" points="1055.23,-80.3573 1053,-70 1048.29,-79.4879 1055.23,-80.3573"/>
</g>
<!-- xCard -->
<g id="node5" class="node"><title>xCard</title>
<polygon fill="none" stroke="black" points="871.5,-212.5 871.5,-281.5 948.5,-281.5 948.5,-212.5 871.5,-212.5"/>
<text text-anchor="middle" x="910" y="-266.3" font-family="Times,serif" font-size="14.00">children</text>
<polyline fill="none" stroke="black" points="871.5,-258.5 948.5,-258.5 "/>
<text text-anchor="middle" x="910" y="-243.3" font-family="Times,serif" font-size="14.00">Card</text>
<polyline fill="none" stroke="black" points="871.5,-235.5 948.5,-235.5 "/>
<text text-anchor="middle" x="910" y="-220.3" font-family="Times,serif" font-size="14.00">component</text>
</g>
<!-- xCard&#45;&gt;xMuiThemeProvider -->
<g id="edge11" class="edge"><title>xCard:OUTPUT_component&#45;&gt;xMuiThemeProvider:INPUT_children</title>
<path fill="none" stroke="black" d="M910,-212C910,-200 910,-194.75 910,-186.125"/>
<polygon fill="black" stroke="black" points="913.5,-186 910,-176 906.5,-186 913.5,-186"/>
</g>
<!-- xCardHeader -->
<g id="node6" class="node"><title>xCardHeader</title>
<polygon fill="none" stroke="black" points="164,-318.5 164,-387.5 308,-387.5 308,-318.5 164,-318.5"/>
<text text-anchor="middle" x="183" y="-372.3" font-family="Times,serif" font-size="14.00">title</text>
<polyline fill="none" stroke="black" points="202,-364.5 202,-387.5 "/>
<text text-anchor="middle" x="230" y="-372.3" font-family="Times,serif" font-size="14.00">subtitle</text>
<polyline fill="none" stroke="black" points="258,-364.5 258,-387.5 "/>
<text text-anchor="middle" x="283" y="-372.3" font-family="Times,serif" font-size="14.00">avatar</text>
<polyline fill="none" stroke="black" points="164,-364.5 308,-364.5 "/>
<text text-anchor="middle" x="236" y="-349.3" font-family="Times,serif" font-size="14.00">CardHeader</text>
<polyline fill="none" stroke="black" points="164,-341.5 308,-341.5 "/>
<text text-anchor="middle" x="236" y="-326.3" font-family="Times,serif" font-size="14.00">component</text>
</g>
<!-- xCardHeader&#45;&gt;xCard -->
<g id="edge6" class="edge"><title>xCardHeader:OUTPUT_component&#45;&gt;xCard:INPUT_children</title>
<path fill="none" stroke="black" d="M309,-330C556.327,-330 617.582,-271.629 859.821,-270.033"/>
<polygon fill="black" stroke="black" points="860.012,-273.533 870,-270 859.989,-266.533 860.012,-273.533"/>
</g>
<!-- xCardActions -->
<g id="node7" class="node"><title>xCardActions</title>
<polygon fill="none" stroke="black" points="594.5,-318.5 594.5,-387.5 679.5,-387.5 679.5,-318.5 594.5,-318.5"/>
<text text-anchor="middle" x="637" y="-372.3" font-family="Times,serif" font-size="14.00">children</text>
<polyline fill="none" stroke="black" points="594.5,-364.5 679.5,-364.5 "/>
<text text-anchor="middle" x="637" y="-349.3" font-family="Times,serif" font-size="14.00">CardActions</text>
<polyline fill="none" stroke="black" points="594.5,-341.5 679.5,-341.5 "/>
<text text-anchor="middle" x="637" y="-326.3" font-family="Times,serif" font-size="14.00">component</text>
</g>
<!-- xCardActions&#45;&gt;xCard -->
<g id="edge10" class="edge"><title>xCardActions:OUTPUT_component&#45;&gt;xCard:INPUT_children</title>
<path fill="none" stroke="black" d="M681,-330C765.516,-330 780.697,-274.821 859.526,-270.295"/>
<polygon fill="black" stroke="black" points="860.102,-273.78 870,-270 859.906,-266.783 860.102,-273.78"/>
</g>
<!-- xCardMedia -->
<g id="node8" class="node"><title>xCardMedia</title>
<polygon fill="none" stroke="black" points="851,-318.5 851,-387.5 969,-387.5 969,-318.5 851,-318.5"/>
<text text-anchor="middle" x="879.5" y="-372.3" font-family="Times,serif" font-size="14.00">overlay</text>
<polyline fill="none" stroke="black" points="908,-364.5 908,-387.5 "/>
<text text-anchor="middle" x="938.5" y="-372.3" font-family="Times,serif" font-size="14.00">children</text>
<polyline fill="none" stroke="black" points="851,-364.5 969,-364.5 "/>
<text text-anchor="middle" x="910" y="-349.3" font-family="Times,serif" font-size="14.00">CardMedia</text>
<polyline fill="none" stroke="black" points="851,-341.5 969,-341.5 "/>
<text text-anchor="middle" x="910" y="-326.3" font-family="Times,serif" font-size="14.00">component</text>
</g>
<!-- xCardMedia&#45;&gt;xCard -->
<g id="edge7" class="edge"><title>xCardMedia:OUTPUT_component&#45;&gt;xCard:INPUT_children</title>
<path fill="none" stroke="black" d="M910,-318C910,-306 910,-300.75 910,-292.125"/>
<polygon fill="black" stroke="black" points="913.5,-292 910,-282 906.5,-292 913.5,-292"/>
</g>
<!-- xCardTitle -->
<g id="node9" class="node"><title>xCardTitle</title>
<polygon fill="none" stroke="black" points="1099,-318.5 1099,-387.5 1193,-387.5 1193,-318.5 1099,-318.5"/>
<text text-anchor="middle" x="1118" y="-372.3" font-family="Times,serif" font-size="14.00">title</text>
<polyline fill="none" stroke="black" points="1137,-364.5 1137,-387.5 "/>
<text text-anchor="middle" x="1165" y="-372.3" font-family="Times,serif" font-size="14.00">subtitle</text>
<polyline fill="none" stroke="black" points="1099,-364.5 1193,-364.5 "/>
<text text-anchor="middle" x="1146" y="-349.3" font-family="Times,serif" font-size="14.00">CardTitle</text>
<polyline fill="none" stroke="black" points="1099,-341.5 1193,-341.5 "/>
<text text-anchor="middle" x="1146" y="-326.3" font-family="Times,serif" font-size="14.00">component</text>
</g>
<!-- xCardTitle&#45;&gt;xCard -->
<g id="edge8" class="edge"><title>xCardTitle:OUTPUT_component&#45;&gt;xCard:INPUT_children</title>
<path fill="none" stroke="black" d="M1098,-330C1030.63,-330 1021.76,-275.939 960.328,-270.448"/>
<polygon fill="black" stroke="black" points="960.142,-266.937 950,-270 959.839,-273.931 960.142,-266.937"/>
</g>
<!-- xCardMediaTitle -->
<g id="node10" class="node"><title>xCardMediaTitle</title>
<polygon fill="none" stroke="black" points="802,-424.5 802,-493.5 906,-493.5 906,-424.5 802,-424.5"/>
<text text-anchor="middle" x="823.5" y="-478.3" font-family="Times,serif" font-size="14.00">title</text>
<polyline fill="none" stroke="black" points="845,-470.5 845,-493.5 "/>
<text text-anchor="middle" x="875.5" y="-478.3" font-family="Times,serif" font-size="14.00">subtitle</text>
<polyline fill="none" stroke="black" points="802,-470.5 906,-470.5 "/>
<text text-anchor="middle" x="854" y="-455.3" font-family="Times,serif" font-size="14.00">CardMediaTitle</text>
<polyline fill="none" stroke="black" points="802,-447.5 906,-447.5 "/>
<text text-anchor="middle" x="854" y="-432.3" font-family="Times,serif" font-size="14.00">component</text>
</g>
<!-- xCardMediaTitle&#45;&gt;xCardMedia -->
<g id="edge4" class="edge"><title>xCardMediaTitle:OUTPUT_component&#45;&gt;xCardMedia:INPUT_overlay</title>
<path fill="none" stroke="black" d="M907,-436C912.352,-436 907.902,-429.002 906,-424 900.392,-409.249 886.823,-407.815 881.349,-398.041"/>
<polygon fill="black" stroke="black" points="884.686,-396.94 879,-388 877.87,-398.534 884.686,-396.94"/>
</g>
<!-- xCardText -->
<g id="node11" class="node"><title>xCardText</title>
<polygon fill="none" stroke="black" points="1368.5,-318.5 1368.5,-387.5 1445.5,-387.5 1445.5,-318.5 1368.5,-318.5"/>
<text text-anchor="middle" x="1407" y="-372.3" font-family="Times,serif" font-size="14.00">children</text>
<polyline fill="none" stroke="black" points="1368.5,-364.5 1445.5,-364.5 "/>
<text text-anchor="middle" x="1407" y="-349.3" font-family="Times,serif" font-size="14.00">CardText</text>
<polyline fill="none" stroke="black" points="1368.5,-341.5 1445.5,-341.5 "/>
<text text-anchor="middle" x="1407" y="-326.3" font-family="Times,serif" font-size="14.00">component</text>
</g>
<!-- xCardText&#45;&gt;xCard -->
<g id="edge9" class="edge"><title>xCardText:OUTPUT_component&#45;&gt;xCard:INPUT_children</title>
<path fill="none" stroke="black" d="M1367,-330C1183.14,-330 1138.83,-272.148 960.008,-270.058"/>
<polygon fill="black" stroke="black" points="960.02,-266.558 950,-270 959.979,-273.558 960.02,-266.558"/>
</g>
<!-- xImg -->
<g id="node12" class="node"><title>xImg</title>
<polygon fill="none" stroke="black" points="924,-424.5 924,-493.5 1004,-493.5 1004,-424.5 924,-424.5"/>
<text text-anchor="middle" x="940.5" y="-478.3" font-family="Times,serif" font-size="14.00">tag</text>
<polyline fill="none" stroke="black" points="957,-470.5 957,-493.5 "/>
<text text-anchor="middle" x="980.5" y="-478.3" font-family="Times,serif" font-size="14.00">props</text>
<polyline fill="none" stroke="black" points="924,-470.5 1004,-470.5 "/>
<text text-anchor="middle" x="964" y="-455.3" font-family="Times,serif" font-size="14.00">Img</text>
<polyline fill="none" stroke="black" points="924,-447.5 1004,-447.5 "/>
<text text-anchor="middle" x="964" y="-432.3" font-family="Times,serif" font-size="14.00">element</text>
</g>
<!-- xImg&#45;&gt;xCardMedia -->
<g id="edge5" class="edge"><title>xImg:OUTPUT_element&#45;&gt;xCardMedia:INPUT_children</title>
<path fill="none" stroke="black" d="M923,-436C917.648,-436 922.733,-429.2 924,-424 927.141,-411.106 934.265,-407.014 937.432,-398.025"/>
<polygon fill="black" stroke="black" points="940.913,-398.421 939,-388 933.997,-397.339 940.913,-398.421"/>
</g>
<!-- xActionButton1 -->
<g id="node13" class="node"><title>xActionButton1</title>
<polygon fill="none" stroke="black" points="417.5,-424.5 417.5,-493.5 514.5,-493.5 514.5,-424.5 417.5,-424.5"/>
<text text-anchor="middle" x="441" y="-478.3" font-family="Times,serif" font-size="14.00">icon</text>
<polyline fill="none" stroke="black" points="464.5,-470.5 464.5,-493.5 "/>
<text text-anchor="middle" x="489.5" y="-478.3" font-family="Times,serif" font-size="14.00">label</text>
<polyline fill="none" stroke="black" points="417.5,-470.5 514.5,-470.5 "/>
<text text-anchor="middle" x="466" y="-455.3" font-family="Times,serif" font-size="14.00">ActionButton1</text>
<polyline fill="none" stroke="black" points="417.5,-447.5 514.5,-447.5 "/>
<text text-anchor="middle" x="466" y="-432.3" font-family="Times,serif" font-size="14.00">component</text>
</g>
<!-- xActionButton1&#45;&gt;xCardActions -->
<g id="edge14" class="edge"><title>xActionButton1:OUTPUT_component&#45;&gt;xCardActions:INPUT_children</title>
<path fill="none" stroke="black" d="M516,-436C555.657,-436 550.902,-385.869 582.925,-377.253"/>
<polygon fill="black" stroke="black" points="583.509,-380.708 593,-376 582.644,-373.761 583.509,-380.708"/>
</g>
<!-- xActionButton2 -->
<g id="node14" class="node"><title>xActionButton2</title>
<polygon fill="none" stroke="black" points="588.5,-424.5 588.5,-493.5 685.5,-493.5 685.5,-424.5 588.5,-424.5"/>
<text text-anchor="middle" x="612" y="-478.3" font-family="Times,serif" font-size="14.00">icon</text>
<polyline fill="none" stroke="black" points="635.5,-470.5 635.5,-493.5 "/>
<text text-anchor="middle" x="660.5" y="-478.3" font-family="Times,serif" font-size="14.00">label</text>
<polyline fill="none" stroke="black" points="588.5,-470.5 685.5,-470.5 "/>
<text text-anchor="middle" x="637" y="-455.3" font-family="Times,serif" font-size="14.00">ActionButton2</text>
<polyline fill="none" stroke="black" points="588.5,-447.5 685.5,-447.5 "/>
<text text-anchor="middle" x="637" y="-432.3" font-family="Times,serif" font-size="14.00">component</text>
</g>
<!-- xActionButton2&#45;&gt;xCardActions -->
<g id="edge15" class="edge"><title>xActionButton2:OUTPUT_component&#45;&gt;xCardActions:INPUT_children</title>
<path fill="none" stroke="black" d="M637,-424C637,-412 637,-406.75 637,-398.125"/>
<polygon fill="black" stroke="black" points="640.5,-398 637,-388 633.5,-398 640.5,-398"/>
</g>
<!-- xActionAndroid -->
<g id="node15" class="node"><title>xActionAndroid</title>
<polygon fill="none" stroke="black" points="314,-530.5 314,-576.5 412,-576.5 412,-530.5 314,-530.5"/>
<text text-anchor="middle" x="363" y="-561.3" font-family="Times,serif" font-size="14.00">ActionAndroid</text>
<polyline fill="none" stroke="black" points="314,-553.5 412,-553.5 "/>
<text text-anchor="middle" x="363" y="-538.3" font-family="Times,serif" font-size="14.00">component</text>
</g>
<!-- xActionAndroid&#45;&gt;xActionButton1 -->
<g id="edge12" class="edge"><title>xActionAndroid:OUTPUT_component&#45;&gt;xActionButton1:INPUT_icon</title>
<path fill="none" stroke="black" d="M413,-541.5C422.929,-541.5 412.205,-508.031 411.808,-491.297"/>
<polygon fill="black" stroke="black" points="415.08,-492.555 416,-482 408.699,-489.677 415.08,-492.555"/>
</g>
<!-- xActionFlightTakeOff -->
<g id="node16" class="node"><title>xActionFlightTakeOff</title>
<polygon fill="none" stroke="black" points="512.5,-530.5 512.5,-576.5 643.5,-576.5 643.5,-530.5 512.5,-530.5"/>
<text text-anchor="middle" x="578" y="-561.3" font-family="Times,serif" font-size="14.00">ActionFlightTakeOff</text>
<polyline fill="none" stroke="black" points="512.5,-553.5 643.5,-553.5 "/>
<text text-anchor="middle" x="578" y="-538.3" font-family="Times,serif" font-size="14.00">component</text>
</g>
<!-- xActionFlightTakeOff&#45;&gt;xActionButton2 -->
<g id="edge13" class="edge"><title>xActionFlightTakeOff:OUTPUT_component&#45;&gt;xActionButton2:INPUT_icon</title>
<path fill="none" stroke="black" d="M645,-541.5C650.13,-541.5 646.029,-534.712 644,-530 637.186,-514.179 620.618,-514.371 614.405,-503.895"/>
<polygon fill="black" stroke="black" points="617.763,-502.89 612,-494 610.961,-504.544 617.763,-502.89"/>
</g>
<!-- xIIP0 -->
<g id="node17" class="node"><title>xIIP0</title>
<text text-anchor="middle" x="1049" y="-549.8" font-family="Times,serif" font-size="14.00">&#39;img&#39;</text>
</g>
<!-- xIIP0&#45;&gt;xImg -->
<g id="edge16" class="edge"><title>xIIP0&#45;&gt;xImg:INPUT_tag</title>
<path fill="none" stroke="black" d="M1022.44,-535.487C1019.29,-533.589 1016.09,-531.722 1013,-530 984.856,-514.317 948.939,-526.708 941.419,-504.05"/>
<polygon fill="black" stroke="black" points="944.864,-503.413 940,-494 937.932,-504.391 944.864,-503.413"/>
</g>
<!-- xIIP1 -->
<g id="node18" class="node"><title>xIIP1</title>
<text text-anchor="middle" x="1150" y="-549.8" font-family="Times,serif" font-size="14.00">&#39;images/mars.jpg&#39;</text>
</g>
<!-- xIIP1&#45;&gt;xImg -->
<g id="edge17" class="edge"><title>xIIP1&#45;&gt;xImg:INPUT_props</title>
<path fill="none" stroke="black" d="M1102.15,-535.407C1068.59,-522.803 1027.27,-505.857 1013,-494 1011.77,-492.976 1011.05,-491.714 1010.57,-490.397"/>
<polygon fill="black" stroke="black" points="1013.45,-488.398 1005,-482 1007.61,-492.268 1013.45,-488.398"/>
</g>
<!-- xIIP2 -->
<g id="node19" class="node"><title>xIIP2</title>
<text text-anchor="middle" x="28" y="-455.3" font-family="Times,serif" font-size="14.00">&#39;Rhalff&#39;</text>
</g>
<!-- xIIP2&#45;&gt;xCardHeader -->
<g id="edge18" class="edge"><title>xIIP2&#45;&gt;xCardHeader:INPUT_title</title>
<path fill="none" stroke="black" d="M43.579,-440.61C65.3528,-418.185 107.365,-381.466 152.921,-376.55"/>
<polygon fill="black" stroke="black" points="153.206,-380.04 163,-376 152.824,-373.05 153.206,-380.04"/>
</g>
<!-- xIIP3 -->
<g id="node20" class="node"><title>xIIP3</title>
<text text-anchor="middle" x="170" y="-455.3" font-family="Times,serif" font-size="14.00">&#39;If I don&#39;t see you no more in ...&#39;</text>
</g>
<!-- xIIP3&#45;&gt;xCardHeader -->
<g id="edge19" class="edge"><title>xIIP3&#45;&gt;xCardHeader:INPUT_subtitle</title>
<path fill="none" stroke="black" d="M196.841,-440.9C210.32,-430.382 224.66,-415.564 228.812,-398.018"/>
<polygon fill="black" stroke="black" points="232.298,-398.343 230,-388 225.346,-397.518 232.298,-398.343"/>
</g>
<!-- xIIP4 -->
<g id="node21" class="node"><title>xIIP4</title>
<text text-anchor="middle" x="342" y="-455.3" font-family="Times,serif" font-size="14.00">&#39;images/rhalff.jpg&#39;</text>
</g>
<!-- xIIP4&#45;&gt;xCardHeader -->
<g id="edge20" class="edge"><title>xIIP4&#45;&gt;xCardHeader:INPUT_avatar</title>
<path fill="none" stroke="black" d="M342.305,-440.61C341.794,-419.736 337.896,-386.478 318.856,-378.012"/>
<polygon fill="black" stroke="black" points="319.498,-374.571 309,-376 318.098,-381.429 319.498,-374.571"/>
</g>
<!-- xIIP5 -->
<g id="node22" class="node"><title>xIIP5</title>
<text text-anchor="middle" x="778" y="-549.8" font-family="Times,serif" font-size="14.00">&#39;Mars Rocks&#39;</text>
</g>
<!-- xIIP5&#45;&gt;xCardMediaTitle -->
<g id="edge21" class="edge"><title>xIIP5&#45;&gt;xCardMediaTitle:INPUT_title</title>
<path fill="none" stroke="black" d="M776.672,-535.434C776.135,-518.155 777.809,-492.85 791.122,-484.662"/>
<polygon fill="black" stroke="black" points="792.255,-487.981 801,-482 790.434,-481.222 792.255,-487.981"/>
</g>
<!-- xIIP6 -->
<g id="node23" class="node"><title>xIIP6</title>
<text text-anchor="middle" x="922" y="-549.8" font-family="Times,serif" font-size="14.00">&#39;Some finely layered rocks&#39;</text>
</g>
<!-- xIIP6&#45;&gt;xCardMediaTitle -->
<g id="edge22" class="edge"><title>xIIP6&#45;&gt;xCardMediaTitle:INPUT_subtitle</title>
<path fill="none" stroke="black" d="M920.044,-535.434C918.279,-521.415 915.455,-502.113 912.14,-490.956"/>
<polygon fill="black" stroke="black" points="915.014,-488.931 907,-482 908.942,-492.415 915.014,-488.931"/>
</g>
<!-- xIIP7 -->
<g id="node24" class="node"><title>xIIP7</title>
<text text-anchor="middle" x="1118" y="-455.3" font-family="Times,serif" font-size="14.00">&#39;NASA’s Curiosity Mars Rover&#39;</text>
</g>
<!-- xIIP7&#45;&gt;xCardTitle -->
<g id="edge23" class="edge"><title>xIIP7&#45;&gt;xCardTitle:INPUT_title</title>
<path fill="none" stroke="black" d="M1118,-440.74C1118,-429.228 1118,-413.48 1118,-398.332"/>
<polygon fill="black" stroke="black" points="1121.5,-398 1118,-388 1114.5,-398 1121.5,-398"/>
</g>
<!-- xIIP8 -->
<g id="node25" class="node"><title>xIIP8</title>
<text text-anchor="middle" x="1341" y="-455.3" font-family="Times,serif" font-size="14.00">&#39;Image Credit: NASA/JPL&#45;Caltech...&#39;</text>
</g>
<!-- xIIP8&#45;&gt;xCardTitle -->
<g id="edge24" class="edge"><title>xIIP8&#45;&gt;xCardTitle:INPUT_subtitle</title>
<path fill="none" stroke="black" d="M1323.73,-440.61C1299.57,-418.091 1253.11,-381.157 1204.15,-376.49"/>
<polygon fill="black" stroke="black" points="1204.16,-372.986 1194,-376 1203.82,-379.978 1204.16,-372.986"/>
</g>
<!-- xIIP9 -->
<g id="node26" class="node"><title>xIIP9</title>
<text text-anchor="middle" x="1564" y="-455.3" font-family="Times,serif" font-size="14.00">&#39;Curiosity got close to this ou...&#39;</text>
</g>
<!-- xIIP9&#45;&gt;xCardText -->
<g id="edge25" class="edge"><title>xIIP9&#45;&gt;xCardText:INPUT_children</title>
<path fill="none" stroke="black" d="M1550.99,-440.61C1532.85,-418.373 1497.58,-382.08 1457.11,-376.68"/>
<polygon fill="black" stroke="black" points="1457.21,-373.18 1447,-376 1456.74,-380.164 1457.21,-373.18"/>
</g>
<!-- xIIP10 -->
<g id="node27" class="node"><title>xIIP10</title>
<text text-anchor="middle" x="462" y="-549.8" font-family="Times,serif" font-size="14.00">&#39;Explore&#39;</text>
</g>
<!-- xIIP10&#45;&gt;xActionButton1 -->
<g id="edge26" class="edge"><title>xIIP10&#45;&gt;xActionButton1:INPUT_label</title>
<path fill="none" stroke="black" d="M475.18,-535.334C480.797,-526.707 486.591,-515.657 488.928,-504.164"/>
<polygon fill="black" stroke="black" points="492.431,-504.312 490,-494 485.47,-503.577 492.431,-504.312"/>
</g>
<!-- xIIP11 -->
<g id="node28" class="node"><title>xIIP11</title>
<text text-anchor="middle" x="689" y="-549.8" font-family="Times,serif" font-size="14.00">&#39;Visit&#39;</text>
</g>
<!-- xIIP11&#45;&gt;xActionButton2 -->
<g id="edge27" class="edge"><title>xIIP11&#45;&gt;xActionButton2:INPUT_label</title>
<path fill="none" stroke="black" d="M675.82,-535.334C670.203,-526.707 664.409,-515.657 662.072,-504.164"/>
<polygon fill="black" stroke="black" points="665.53,-503.577 661,-494 658.569,-504.312 665.53,-503.577"/>
</g>
</g>
</svg>
